<mxfile host="app.diagrams.net" agent="Mozilla/5.0 (Macintosh; Intel Mac OS X 10_15_7) AppleWebKit/537.36 (KHTML, like Gecko) Chrome/134.0.0.0 Safari/537.36" version="26.2.5">
  <diagram name="Page-1" id="IV1nOy_GWkUBiRQeD3iH">
    <mxGraphModel dx="1108" dy="977" grid="1" gridSize="10" guides="1" tooltips="1" connect="1" arrows="1" fold="1" page="1" pageScale="1" pageWidth="1100" pageHeight="850" math="0" shadow="0">
      <root>
        <mxCell id="0" />
        <mxCell id="1" parent="0" />
        <mxCell id="LX3Rz9tpUeZRFyrgIDix-85" style="edgeStyle=orthogonalEdgeStyle;rounded=0;orthogonalLoop=1;jettySize=auto;html=1;exitX=0.5;exitY=0;exitDx=0;exitDy=0;entryX=0.5;entryY=0;entryDx=0;entryDy=0;fillColor=#e51400;strokeColor=#B20000;strokeWidth=3;" edge="1" parent="1" source="LX3Rz9tpUeZRFyrgIDix-1" target="LX3Rz9tpUeZRFyrgIDix-25">
          <mxGeometry relative="1" as="geometry" />
        </mxCell>
        <mxCell id="LX3Rz9tpUeZRFyrgIDix-1" value="&lt;font style=&quot;font-size: 20px;&quot;&gt;INICIO&lt;/font&gt;" style="ellipse;whiteSpace=wrap;html=1;aspect=fixed;fillColor=#ffe6cc;strokeColor=#d79b00;" vertex="1" parent="1">
          <mxGeometry x="110" y="30" width="80" height="80" as="geometry" />
        </mxCell>
        <mxCell id="LX3Rz9tpUeZRFyrgIDix-4" value="&lt;font style=&quot;font-size: 20px;&quot;&gt;1.1&lt;br&gt;t = 40&lt;/font&gt;" style="whiteSpace=wrap;html=1;aspect=fixed;fillColor=#d5e8d4;strokeColor=#82b366;" vertex="1" parent="1">
          <mxGeometry x="110" y="120" width="70" height="70" as="geometry" />
        </mxCell>
        <mxCell id="LX3Rz9tpUeZRFyrgIDix-7" value="&lt;font style=&quot;font-size: 20px;&quot;&gt;1.4&lt;br&gt;t = 20&lt;/font&gt;" style="whiteSpace=wrap;html=1;aspect=fixed;fillColor=#d5e8d4;strokeColor=#82b366;" vertex="1" parent="1">
          <mxGeometry x="110" y="370" width="70" height="70" as="geometry" />
        </mxCell>
        <mxCell id="LX3Rz9tpUeZRFyrgIDix-8" value="&lt;font style=&quot;font-size: 20px;&quot;&gt;1.3&lt;br&gt;t = 40&lt;/font&gt;" style="whiteSpace=wrap;html=1;aspect=fixed;fillColor=#d5e8d4;strokeColor=#82b366;" vertex="1" parent="1">
          <mxGeometry x="110" y="280" width="70" height="70" as="geometry" />
        </mxCell>
        <mxCell id="LX3Rz9tpUeZRFyrgIDix-9" value="&lt;font style=&quot;font-size: 20px;&quot;&gt;1.2&lt;br&gt;t = 40&lt;/font&gt;" style="whiteSpace=wrap;html=1;aspect=fixed;fillColor=#d5e8d4;strokeColor=#82b366;" vertex="1" parent="1">
          <mxGeometry x="110" y="200" width="70" height="70" as="geometry" />
        </mxCell>
        <mxCell id="LX3Rz9tpUeZRFyrgIDix-10" value="&lt;font style=&quot;font-size: 20px;&quot;&gt;2.1&lt;br&gt;t = 4&lt;/font&gt;" style="whiteSpace=wrap;html=1;aspect=fixed;fillColor=#fff2cc;strokeColor=#d6b656;" vertex="1" parent="1">
          <mxGeometry x="290" y="210" width="70" height="70" as="geometry" />
        </mxCell>
        <mxCell id="LX3Rz9tpUeZRFyrgIDix-11" value="&lt;font style=&quot;font-size: 20px;&quot;&gt;2.2&lt;br&gt;t = 4&lt;/font&gt;" style="whiteSpace=wrap;html=1;aspect=fixed;fillColor=#fff2cc;strokeColor=#d6b656;" vertex="1" parent="1">
          <mxGeometry x="400" y="210" width="70" height="70" as="geometry" />
        </mxCell>
        <mxCell id="LX3Rz9tpUeZRFyrgIDix-79" style="edgeStyle=orthogonalEdgeStyle;rounded=0;orthogonalLoop=1;jettySize=auto;html=1;exitX=0.5;exitY=1;exitDx=0;exitDy=0;entryX=0.5;entryY=0;entryDx=0;entryDy=0;strokeWidth=3;fillColor=#e51400;strokeColor=#B20000;" edge="1" parent="1" source="LX3Rz9tpUeZRFyrgIDix-12" target="LX3Rz9tpUeZRFyrgIDix-17">
          <mxGeometry relative="1" as="geometry">
            <Array as="points">
              <mxPoint x="545" y="300" />
              <mxPoint x="315" y="300" />
            </Array>
          </mxGeometry>
        </mxCell>
        <mxCell id="LX3Rz9tpUeZRFyrgIDix-12" value="&lt;font style=&quot;font-size: 20px;&quot;&gt;2.3&lt;/font&gt;&lt;div&gt;&lt;font style=&quot;font-size: 20px;&quot;&gt;t = 12&lt;/font&gt;&lt;/div&gt;" style="whiteSpace=wrap;html=1;aspect=fixed;fillColor=#fff2cc;strokeColor=#d6b656;" vertex="1" parent="1">
          <mxGeometry x="510" y="210" width="70" height="70" as="geometry" />
        </mxCell>
        <mxCell id="LX3Rz9tpUeZRFyrgIDix-70" style="edgeStyle=orthogonalEdgeStyle;rounded=0;orthogonalLoop=1;jettySize=auto;html=1;exitX=0.5;exitY=1;exitDx=0;exitDy=0;entryX=0.5;entryY=0;entryDx=0;entryDy=0;fillColor=#e51400;strokeColor=#B20000;strokeWidth=3;" edge="1" parent="1" source="LX3Rz9tpUeZRFyrgIDix-17" target="LX3Rz9tpUeZRFyrgIDix-20">
          <mxGeometry relative="1" as="geometry" />
        </mxCell>
        <mxCell id="LX3Rz9tpUeZRFyrgIDix-17" value="&lt;font style=&quot;font-size: 20px;&quot;&gt;3.1&lt;br&gt;t = 10&lt;/font&gt;" style="whiteSpace=wrap;html=1;aspect=fixed;fillColor=#f5f5f5;fontColor=#333333;strokeColor=#666666;" vertex="1" parent="1">
          <mxGeometry x="280" y="350" width="70" height="70" as="geometry" />
        </mxCell>
        <mxCell id="LX3Rz9tpUeZRFyrgIDix-81" style="edgeStyle=orthogonalEdgeStyle;rounded=0;orthogonalLoop=1;jettySize=auto;html=1;exitX=0.5;exitY=1;exitDx=0;exitDy=0;entryX=0.5;entryY=0;entryDx=0;entryDy=0;" edge="1" parent="1" source="LX3Rz9tpUeZRFyrgIDix-18" target="LX3Rz9tpUeZRFyrgIDix-23">
          <mxGeometry relative="1" as="geometry" />
        </mxCell>
        <mxCell id="LX3Rz9tpUeZRFyrgIDix-18" value="&lt;font style=&quot;font-size: 20px;&quot;&gt;3.4&lt;br&gt;t = 20&lt;/font&gt;" style="whiteSpace=wrap;html=1;aspect=fixed;fillColor=#f5f5f5;fontColor=#333333;strokeColor=#666666;" vertex="1" parent="1">
          <mxGeometry x="380" y="460" width="70" height="70" as="geometry" />
        </mxCell>
        <mxCell id="LX3Rz9tpUeZRFyrgIDix-71" style="edgeStyle=orthogonalEdgeStyle;rounded=0;orthogonalLoop=1;jettySize=auto;html=1;exitX=0.5;exitY=1;exitDx=0;exitDy=0;entryX=0.5;entryY=0;entryDx=0;entryDy=0;" edge="1" parent="1" source="LX3Rz9tpUeZRFyrgIDix-19" target="LX3Rz9tpUeZRFyrgIDix-18">
          <mxGeometry relative="1" as="geometry" />
        </mxCell>
        <mxCell id="LX3Rz9tpUeZRFyrgIDix-19" value="&lt;font style=&quot;font-size: 20px;&quot;&gt;3.3&lt;br&gt;t = 10&lt;/font&gt;" style="whiteSpace=wrap;html=1;aspect=fixed;fillColor=#f5f5f5;fontColor=#333333;strokeColor=#666666;" vertex="1" parent="1">
          <mxGeometry x="380" y="350" width="70" height="70" as="geometry" />
        </mxCell>
        <mxCell id="LX3Rz9tpUeZRFyrgIDix-80" style="edgeStyle=orthogonalEdgeStyle;rounded=0;orthogonalLoop=1;jettySize=auto;html=1;exitX=0.5;exitY=1;exitDx=0;exitDy=0;entryX=0;entryY=0.5;entryDx=0;entryDy=0;strokeWidth=3;fillColor=#e51400;strokeColor=#B20000;" edge="1" parent="1" source="LX3Rz9tpUeZRFyrgIDix-20" target="LX3Rz9tpUeZRFyrgIDix-23">
          <mxGeometry relative="1" as="geometry" />
        </mxCell>
        <mxCell id="LX3Rz9tpUeZRFyrgIDix-20" value="&lt;font style=&quot;font-size: 20px;&quot;&gt;3.2&lt;br&gt;t = 40&lt;/font&gt;" style="whiteSpace=wrap;html=1;aspect=fixed;fillColor=#f5f5f5;fontColor=#333333;strokeColor=#666666;" vertex="1" parent="1">
          <mxGeometry x="280" y="460" width="70" height="70" as="geometry" />
        </mxCell>
        <mxCell id="LX3Rz9tpUeZRFyrgIDix-72" style="edgeStyle=orthogonalEdgeStyle;rounded=0;orthogonalLoop=1;jettySize=auto;html=1;exitX=0.5;exitY=1;exitDx=0;exitDy=0;entryX=0.5;entryY=0;entryDx=0;entryDy=0;" edge="1" parent="1" source="LX3Rz9tpUeZRFyrgIDix-21" target="LX3Rz9tpUeZRFyrgIDix-24">
          <mxGeometry relative="1" as="geometry" />
        </mxCell>
        <mxCell id="LX3Rz9tpUeZRFyrgIDix-21" value="&lt;font style=&quot;font-size: 20px;&quot;&gt;3.5&lt;br&gt;t = 10&lt;/font&gt;" style="whiteSpace=wrap;html=1;aspect=fixed;fillColor=#f5f5f5;fontColor=#333333;strokeColor=#666666;" vertex="1" parent="1">
          <mxGeometry x="480" y="350" width="70" height="70" as="geometry" />
        </mxCell>
        <mxCell id="LX3Rz9tpUeZRFyrgIDix-99" style="edgeStyle=orthogonalEdgeStyle;rounded=0;orthogonalLoop=1;jettySize=auto;html=1;exitX=0;exitY=0.5;exitDx=0;exitDy=0;fillColor=#e51400;strokeColor=#B20000;strokeWidth=3;entryX=0.5;entryY=0;entryDx=0;entryDy=0;" edge="1" parent="1" target="LX3Rz9tpUeZRFyrgIDix-33">
          <mxGeometry relative="1" as="geometry">
            <mxPoint x="380" y="679" as="sourcePoint" />
            <mxPoint x="205" y="739" as="targetPoint" />
          </mxGeometry>
        </mxCell>
        <mxCell id="LX3Rz9tpUeZRFyrgIDix-22" value="&lt;font style=&quot;font-size: 20px;&quot;&gt;3.8&lt;br&gt;t = 4&lt;/font&gt;" style="whiteSpace=wrap;html=1;aspect=fixed;fillColor=#f5f5f5;fontColor=#333333;strokeColor=#666666;" vertex="1" parent="1">
          <mxGeometry x="380" y="660" width="70" height="70" as="geometry" />
        </mxCell>
        <mxCell id="LX3Rz9tpUeZRFyrgIDix-83" style="edgeStyle=orthogonalEdgeStyle;rounded=0;orthogonalLoop=1;jettySize=auto;html=1;exitX=0.5;exitY=1;exitDx=0;exitDy=0;entryX=0.5;entryY=0;entryDx=0;entryDy=0;strokeWidth=3;fillColor=#e51400;strokeColor=#B20000;" edge="1" parent="1" source="LX3Rz9tpUeZRFyrgIDix-23" target="LX3Rz9tpUeZRFyrgIDix-22">
          <mxGeometry relative="1" as="geometry" />
        </mxCell>
        <mxCell id="LX3Rz9tpUeZRFyrgIDix-23" value="&lt;font style=&quot;font-size: 20px;&quot;&gt;3.7&lt;br&gt;t = 10&lt;/font&gt;" style="whiteSpace=wrap;html=1;aspect=fixed;fillColor=#f5f5f5;fontColor=#333333;strokeColor=#666666;" vertex="1" parent="1">
          <mxGeometry x="380" y="560" width="70" height="70" as="geometry" />
        </mxCell>
        <mxCell id="LX3Rz9tpUeZRFyrgIDix-82" style="edgeStyle=orthogonalEdgeStyle;rounded=0;orthogonalLoop=1;jettySize=auto;html=1;exitX=0.5;exitY=1;exitDx=0;exitDy=0;entryX=1;entryY=0.5;entryDx=0;entryDy=0;" edge="1" parent="1" source="LX3Rz9tpUeZRFyrgIDix-24" target="LX3Rz9tpUeZRFyrgIDix-23">
          <mxGeometry relative="1" as="geometry" />
        </mxCell>
        <mxCell id="LX3Rz9tpUeZRFyrgIDix-24" value="&lt;font style=&quot;font-size: 20px;&quot;&gt;3.6&lt;br&gt;t = 20&lt;/font&gt;" style="whiteSpace=wrap;html=1;aspect=fixed;fillColor=#f5f5f5;fontColor=#333333;strokeColor=#666666;" vertex="1" parent="1">
          <mxGeometry x="480" y="460" width="70" height="70" as="geometry" />
        </mxCell>
        <mxCell id="LX3Rz9tpUeZRFyrgIDix-89" style="edgeStyle=orthogonalEdgeStyle;rounded=0;orthogonalLoop=1;jettySize=auto;html=1;exitX=0.5;exitY=1;exitDx=0;exitDy=0;entryX=0.5;entryY=0;entryDx=0;entryDy=0;fillColor=#e51400;strokeColor=#B20000;strokeWidth=3;" edge="1" parent="1" source="LX3Rz9tpUeZRFyrgIDix-25" target="LX3Rz9tpUeZRFyrgIDix-29">
          <mxGeometry relative="1" as="geometry" />
        </mxCell>
        <mxCell id="LX3Rz9tpUeZRFyrgIDix-25" value="&lt;font style=&quot;font-size: 20px;&quot;&gt;4.1&lt;br&gt;t = 20&lt;/font&gt;" style="whiteSpace=wrap;html=1;aspect=fixed;fillColor=#dae8fc;strokeColor=#6c8ebf;" vertex="1" parent="1">
          <mxGeometry x="650" y="60" width="70" height="70" as="geometry" />
        </mxCell>
        <mxCell id="LX3Rz9tpUeZRFyrgIDix-93" style="edgeStyle=orthogonalEdgeStyle;rounded=0;orthogonalLoop=1;jettySize=auto;html=1;exitX=0.5;exitY=1;exitDx=0;exitDy=0;entryX=1;entryY=0.5;entryDx=0;entryDy=0;" edge="1" parent="1" source="LX3Rz9tpUeZRFyrgIDix-26" target="LX3Rz9tpUeZRFyrgIDix-32">
          <mxGeometry relative="1" as="geometry" />
        </mxCell>
        <mxCell id="LX3Rz9tpUeZRFyrgIDix-26" value="&lt;font style=&quot;font-size: 20px;&quot;&gt;4.4&lt;br&gt;t =&amp;nbsp;&lt;/font&gt;&lt;span style=&quot;font-size: 20px; background-color: transparent; color: light-dark(rgb(0, 0, 0), rgb(255, 255, 255));&quot;&gt;20&lt;/span&gt;" style="whiteSpace=wrap;html=1;aspect=fixed;fillColor=#dae8fc;strokeColor=#6c8ebf;" vertex="1" parent="1">
          <mxGeometry x="950" y="60" width="70" height="70" as="geometry" />
        </mxCell>
        <mxCell id="LX3Rz9tpUeZRFyrgIDix-97" style="edgeStyle=orthogonalEdgeStyle;rounded=0;orthogonalLoop=1;jettySize=auto;html=1;exitX=0.5;exitY=1;exitDx=0;exitDy=0;entryX=1;entryY=0.25;entryDx=0;entryDy=0;" edge="1" parent="1" source="LX3Rz9tpUeZRFyrgIDix-27" target="LX3Rz9tpUeZRFyrgIDix-32">
          <mxGeometry relative="1" as="geometry" />
        </mxCell>
        <mxCell id="LX3Rz9tpUeZRFyrgIDix-27" value="&lt;font style=&quot;font-size: 20px;&quot;&gt;4.3&lt;br&gt;t = 20&lt;/font&gt;" style="whiteSpace=wrap;html=1;aspect=fixed;fillColor=#dae8fc;strokeColor=#6c8ebf;" vertex="1" parent="1">
          <mxGeometry x="850" y="60" width="70" height="70" as="geometry" />
        </mxCell>
        <mxCell id="LX3Rz9tpUeZRFyrgIDix-98" style="edgeStyle=orthogonalEdgeStyle;rounded=0;orthogonalLoop=1;jettySize=auto;html=1;exitX=0.5;exitY=1;exitDx=0;exitDy=0;entryX=0;entryY=0.25;entryDx=0;entryDy=0;" edge="1" parent="1">
          <mxGeometry relative="1" as="geometry">
            <mxPoint x="785" y="129" as="sourcePoint" />
            <mxPoint x="790" y="246.5" as="targetPoint" />
            <Array as="points">
              <mxPoint x="770" y="129" />
              <mxPoint x="770" y="246" />
            </Array>
          </mxGeometry>
        </mxCell>
        <mxCell id="LX3Rz9tpUeZRFyrgIDix-28" value="&lt;font style=&quot;font-size: 20px;&quot;&gt;4.2&lt;br&gt;t = 20&lt;/font&gt;" style="whiteSpace=wrap;html=1;aspect=fixed;fillColor=#dae8fc;strokeColor=#6c8ebf;" vertex="1" parent="1">
          <mxGeometry x="750" y="60" width="70" height="70" as="geometry" />
        </mxCell>
        <mxCell id="LX3Rz9tpUeZRFyrgIDix-90" style="edgeStyle=orthogonalEdgeStyle;rounded=0;orthogonalLoop=1;jettySize=auto;html=1;exitX=0.5;exitY=1;exitDx=0;exitDy=0;entryX=0;entryY=0.5;entryDx=0;entryDy=0;strokeWidth=3;fillColor=#e51400;strokeColor=#B20000;" edge="1" parent="1" source="LX3Rz9tpUeZRFyrgIDix-29" target="LX3Rz9tpUeZRFyrgIDix-32">
          <mxGeometry relative="1" as="geometry" />
        </mxCell>
        <mxCell id="LX3Rz9tpUeZRFyrgIDix-29" value="&lt;font style=&quot;font-size: 20px;&quot;&gt;4.5&lt;br&gt;t = 20&lt;/font&gt;" style="whiteSpace=wrap;html=1;aspect=fixed;fillColor=#dae8fc;strokeColor=#6c8ebf;" vertex="1" parent="1">
          <mxGeometry x="650" y="170" width="70" height="70" as="geometry" />
        </mxCell>
        <mxCell id="LX3Rz9tpUeZRFyrgIDix-96" style="edgeStyle=orthogonalEdgeStyle;rounded=0;orthogonalLoop=1;jettySize=auto;html=1;exitX=0;exitY=0.5;exitDx=0;exitDy=0;entryX=1;entryY=0.25;entryDx=0;entryDy=0;" edge="1" parent="1" source="LX3Rz9tpUeZRFyrgIDix-31" target="LX3Rz9tpUeZRFyrgIDix-22">
          <mxGeometry relative="1" as="geometry">
            <Array as="points">
              <mxPoint x="670" y="365" />
              <mxPoint x="670" y="677" />
            </Array>
          </mxGeometry>
        </mxCell>
        <mxCell id="LX3Rz9tpUeZRFyrgIDix-31" value="&lt;font style=&quot;font-size: 20px;&quot;&gt;4.7&lt;br&gt;t = 10&lt;/font&gt;" style="whiteSpace=wrap;html=1;aspect=fixed;fillColor=#dae8fc;strokeColor=#6c8ebf;" vertex="1" parent="1">
          <mxGeometry x="790" y="330" width="70" height="70" as="geometry" />
        </mxCell>
        <mxCell id="LX3Rz9tpUeZRFyrgIDix-94" value="" style="edgeStyle=orthogonalEdgeStyle;rounded=0;orthogonalLoop=1;jettySize=auto;html=1;" edge="1" parent="1" source="LX3Rz9tpUeZRFyrgIDix-32" target="LX3Rz9tpUeZRFyrgIDix-31">
          <mxGeometry relative="1" as="geometry" />
        </mxCell>
        <mxCell id="LX3Rz9tpUeZRFyrgIDix-32" value="&lt;font style=&quot;font-size: 20px;&quot;&gt;4.6&lt;br&gt;t = 10&lt;/font&gt;" style="whiteSpace=wrap;html=1;aspect=fixed;fillColor=#dae8fc;strokeColor=#6c8ebf;" vertex="1" parent="1">
          <mxGeometry x="790" y="230" width="70" height="70" as="geometry" />
        </mxCell>
        <mxCell id="LX3Rz9tpUeZRFyrgIDix-101" style="edgeStyle=orthogonalEdgeStyle;rounded=0;orthogonalLoop=1;jettySize=auto;html=1;exitX=1;exitY=0.5;exitDx=0;exitDy=0;entryX=0;entryY=0.5;entryDx=0;entryDy=0;strokeWidth=3;fillColor=#e51400;strokeColor=#B20000;" edge="1" parent="1" source="LX3Rz9tpUeZRFyrgIDix-33" target="LX3Rz9tpUeZRFyrgIDix-36">
          <mxGeometry relative="1" as="geometry" />
        </mxCell>
        <mxCell id="LX3Rz9tpUeZRFyrgIDix-33" value="&lt;font style=&quot;font-size: 20px;&quot;&gt;5.1&lt;br&gt;t = 40&lt;/font&gt;" style="whiteSpace=wrap;html=1;aspect=fixed;fillColor=#e1d5e7;strokeColor=#9673a6;" vertex="1" parent="1">
          <mxGeometry x="170" y="755" width="70" height="70" as="geometry" />
        </mxCell>
        <mxCell id="LX3Rz9tpUeZRFyrgIDix-104" style="edgeStyle=orthogonalEdgeStyle;rounded=0;orthogonalLoop=1;jettySize=auto;html=1;exitX=1;exitY=0.5;exitDx=0;exitDy=0;entryX=0;entryY=0.5;entryDx=0;entryDy=0;strokeWidth=3;fillColor=#e51400;strokeColor=#B20000;" edge="1" parent="1" source="LX3Rz9tpUeZRFyrgIDix-34" target="LX3Rz9tpUeZRFyrgIDix-37">
          <mxGeometry relative="1" as="geometry" />
        </mxCell>
        <mxCell id="LX3Rz9tpUeZRFyrgIDix-34" value="&lt;font style=&quot;font-size: 20px;&quot;&gt;5.4&lt;br&gt;t = 10&lt;/font&gt;" style="whiteSpace=wrap;html=1;aspect=fixed;fillColor=#e1d5e7;strokeColor=#9673a6;" vertex="1" parent="1">
          <mxGeometry x="560" y="755" width="70" height="70" as="geometry" />
        </mxCell>
        <mxCell id="LX3Rz9tpUeZRFyrgIDix-103" style="edgeStyle=orthogonalEdgeStyle;rounded=0;orthogonalLoop=1;jettySize=auto;html=1;exitX=1;exitY=0.5;exitDx=0;exitDy=0;entryX=0;entryY=0.5;entryDx=0;entryDy=0;strokeWidth=3;fillColor=#e51400;strokeColor=#B20000;" edge="1" parent="1" source="LX3Rz9tpUeZRFyrgIDix-35" target="LX3Rz9tpUeZRFyrgIDix-34">
          <mxGeometry relative="1" as="geometry" />
        </mxCell>
        <mxCell id="LX3Rz9tpUeZRFyrgIDix-35" value="&lt;font style=&quot;font-size: 20px;&quot;&gt;5.3&lt;br&gt;t = 10&lt;/font&gt;" style="whiteSpace=wrap;html=1;aspect=fixed;fillColor=#e1d5e7;strokeColor=#9673a6;" vertex="1" parent="1">
          <mxGeometry x="430" y="755" width="70" height="70" as="geometry" />
        </mxCell>
        <mxCell id="LX3Rz9tpUeZRFyrgIDix-102" style="edgeStyle=orthogonalEdgeStyle;rounded=0;orthogonalLoop=1;jettySize=auto;html=1;exitX=1;exitY=0.5;exitDx=0;exitDy=0;entryX=0;entryY=0.5;entryDx=0;entryDy=0;strokeWidth=3;fillColor=#e51400;strokeColor=#B20000;" edge="1" parent="1" source="LX3Rz9tpUeZRFyrgIDix-36" target="LX3Rz9tpUeZRFyrgIDix-35">
          <mxGeometry relative="1" as="geometry" />
        </mxCell>
        <mxCell id="LX3Rz9tpUeZRFyrgIDix-36" value="&lt;font style=&quot;font-size: 20px;&quot;&gt;5.2&lt;br&gt;t = 40&lt;/font&gt;" style="whiteSpace=wrap;html=1;aspect=fixed;fillColor=#e1d5e7;strokeColor=#9673a6;" vertex="1" parent="1">
          <mxGeometry x="300" y="755" width="70" height="70" as="geometry" />
        </mxCell>
        <mxCell id="LX3Rz9tpUeZRFyrgIDix-105" value="" style="edgeStyle=orthogonalEdgeStyle;rounded=0;orthogonalLoop=1;jettySize=auto;html=1;strokeWidth=3;fillColor=#e51400;strokeColor=#B20000;" edge="1" parent="1" source="LX3Rz9tpUeZRFyrgIDix-37" target="LX3Rz9tpUeZRFyrgIDix-38">
          <mxGeometry relative="1" as="geometry" />
        </mxCell>
        <mxCell id="LX3Rz9tpUeZRFyrgIDix-37" value="&lt;font style=&quot;font-size: 20px;&quot;&gt;6.1&lt;br&gt;t = 40&lt;/font&gt;" style="whiteSpace=wrap;html=1;aspect=fixed;fillColor=#f8cecc;strokeColor=#b85450;" vertex="1" parent="1">
          <mxGeometry x="680" y="755" width="70" height="70" as="geometry" />
        </mxCell>
        <mxCell id="LX3Rz9tpUeZRFyrgIDix-106" value="" style="edgeStyle=orthogonalEdgeStyle;rounded=0;orthogonalLoop=1;jettySize=auto;html=1;strokeWidth=3;fillColor=#e51400;strokeColor=#B20000;" edge="1" parent="1" source="LX3Rz9tpUeZRFyrgIDix-38" target="LX3Rz9tpUeZRFyrgIDix-39">
          <mxGeometry relative="1" as="geometry" />
        </mxCell>
        <mxCell id="LX3Rz9tpUeZRFyrgIDix-38" value="&lt;font style=&quot;font-size: 20px;&quot;&gt;6.2&lt;br&gt;t = 16&lt;/font&gt;" style="whiteSpace=wrap;html=1;aspect=fixed;fillColor=#f8cecc;strokeColor=#b85450;" vertex="1" parent="1">
          <mxGeometry x="800" y="755" width="70" height="70" as="geometry" />
        </mxCell>
        <mxCell id="LX3Rz9tpUeZRFyrgIDix-39" value="&lt;font style=&quot;font-size: 20px;&quot;&gt;FIN&lt;/font&gt;" style="ellipse;whiteSpace=wrap;html=1;aspect=fixed;fillColor=#ffe6cc;strokeColor=#d79b00;" vertex="1" parent="1">
          <mxGeometry x="920" y="750" width="80" height="80" as="geometry" />
        </mxCell>
        <mxCell id="LX3Rz9tpUeZRFyrgIDix-45" style="edgeStyle=orthogonalEdgeStyle;rounded=0;orthogonalLoop=1;jettySize=auto;html=1;exitX=0.5;exitY=1;exitDx=0;exitDy=0;" edge="1" parent="1" source="LX3Rz9tpUeZRFyrgIDix-8" target="LX3Rz9tpUeZRFyrgIDix-8">
          <mxGeometry relative="1" as="geometry" />
        </mxCell>
        <mxCell id="LX3Rz9tpUeZRFyrgIDix-46" value="" style="endArrow=classic;html=1;rounded=0;exitX=0;exitY=0.5;exitDx=0;exitDy=0;entryX=0;entryY=0.5;entryDx=0;entryDy=0;" edge="1" parent="1" source="LX3Rz9tpUeZRFyrgIDix-1" target="LX3Rz9tpUeZRFyrgIDix-4">
          <mxGeometry width="50" height="50" relative="1" as="geometry">
            <mxPoint x="380" y="510" as="sourcePoint" />
            <mxPoint x="430" y="460" as="targetPoint" />
            <Array as="points">
              <mxPoint x="40" y="70" />
              <mxPoint x="40" y="155" />
            </Array>
          </mxGeometry>
        </mxCell>
        <mxCell id="LX3Rz9tpUeZRFyrgIDix-47" value="" style="endArrow=classic;html=1;rounded=0;exitX=0;exitY=0.5;exitDx=0;exitDy=0;entryX=0;entryY=0.5;entryDx=0;entryDy=0;" edge="1" parent="1">
          <mxGeometry width="50" height="50" relative="1" as="geometry">
            <mxPoint x="110" y="155" as="sourcePoint" />
            <mxPoint x="110" y="240" as="targetPoint" />
            <Array as="points">
              <mxPoint x="40" y="155" />
              <mxPoint x="40" y="240" />
            </Array>
          </mxGeometry>
        </mxCell>
        <mxCell id="LX3Rz9tpUeZRFyrgIDix-48" value="" style="endArrow=classic;html=1;rounded=0;exitX=0;exitY=0.5;exitDx=0;exitDy=0;entryX=0;entryY=0.5;entryDx=0;entryDy=0;" edge="1" parent="1">
          <mxGeometry width="50" height="50" relative="1" as="geometry">
            <mxPoint x="110" y="240" as="sourcePoint" />
            <mxPoint x="110" y="325" as="targetPoint" />
            <Array as="points">
              <mxPoint x="40" y="240" />
              <mxPoint x="40" y="325" />
              <mxPoint x="80" y="325" />
            </Array>
          </mxGeometry>
        </mxCell>
        <mxCell id="LX3Rz9tpUeZRFyrgIDix-50" value="" style="endArrow=classic;html=1;rounded=0;entryX=0;entryY=0.5;entryDx=0;entryDy=0;" edge="1" parent="1">
          <mxGeometry width="50" height="50" relative="1" as="geometry">
            <mxPoint x="40" y="260" as="sourcePoint" />
            <mxPoint x="110" y="395" as="targetPoint" />
            <Array as="points">
              <mxPoint x="40" y="310" />
              <mxPoint x="40" y="395" />
            </Array>
          </mxGeometry>
        </mxCell>
        <mxCell id="LX3Rz9tpUeZRFyrgIDix-55" value="" style="endArrow=none;html=1;rounded=0;fillColor=#e51400;strokeColor=#000000;" edge="1" parent="1">
          <mxGeometry width="50" height="50" relative="1" as="geometry">
            <mxPoint x="180" y="325" as="sourcePoint" />
            <mxPoint x="230" y="250" as="targetPoint" />
            <Array as="points">
              <mxPoint x="230" y="325" />
            </Array>
          </mxGeometry>
        </mxCell>
        <mxCell id="LX3Rz9tpUeZRFyrgIDix-56" value="" style="endArrow=none;html=1;rounded=0;fillColor=#e51400;strokeColor=#000000;" edge="1" parent="1">
          <mxGeometry width="50" height="50" relative="1" as="geometry">
            <mxPoint x="180" y="396" as="sourcePoint" />
            <mxPoint x="230" y="306" as="targetPoint" />
            <Array as="points">
              <mxPoint x="230" y="396" />
            </Array>
          </mxGeometry>
        </mxCell>
        <mxCell id="LX3Rz9tpUeZRFyrgIDix-58" value="" style="endArrow=none;html=1;rounded=0;exitX=1;exitY=0.5;exitDx=0;exitDy=0;fillColor=#e51400;strokeColor=#000000;" edge="1" parent="1" source="LX3Rz9tpUeZRFyrgIDix-4">
          <mxGeometry width="50" height="50" relative="1" as="geometry">
            <mxPoint x="290" y="300" as="sourcePoint" />
            <mxPoint x="230" y="250" as="targetPoint" />
            <Array as="points">
              <mxPoint x="230" y="155" />
            </Array>
          </mxGeometry>
        </mxCell>
        <mxCell id="LX3Rz9tpUeZRFyrgIDix-60" value="" style="endArrow=classic;html=1;rounded=0;entryX=0;entryY=0.5;entryDx=0;entryDy=0;fillColor=#e51400;strokeColor=#B20000;strokeWidth=3;" edge="1" parent="1" target="LX3Rz9tpUeZRFyrgIDix-10">
          <mxGeometry width="50" height="50" relative="1" as="geometry">
            <mxPoint x="230" y="245" as="sourcePoint" />
            <mxPoint x="340" y="250" as="targetPoint" />
          </mxGeometry>
        </mxCell>
        <mxCell id="LX3Rz9tpUeZRFyrgIDix-61" value="" style="endArrow=none;html=1;rounded=0;fillColor=#e51400;strokeColor=#B20000;strokeWidth=3;" edge="1" parent="1">
          <mxGeometry width="50" height="50" relative="1" as="geometry">
            <mxPoint x="180" y="245" as="sourcePoint" />
            <mxPoint x="230" y="245" as="targetPoint" />
          </mxGeometry>
        </mxCell>
        <mxCell id="LX3Rz9tpUeZRFyrgIDix-62" value="" style="endArrow=classic;html=1;rounded=0;exitX=1;exitY=0.5;exitDx=0;exitDy=0;entryX=0;entryY=0.5;entryDx=0;entryDy=0;fillColor=#e51400;strokeColor=#B20000;strokeWidth=3;" edge="1" parent="1" source="LX3Rz9tpUeZRFyrgIDix-10" target="LX3Rz9tpUeZRFyrgIDix-11">
          <mxGeometry width="50" height="50" relative="1" as="geometry">
            <mxPoint x="440" y="340" as="sourcePoint" />
            <mxPoint x="490" y="290" as="targetPoint" />
          </mxGeometry>
        </mxCell>
        <mxCell id="LX3Rz9tpUeZRFyrgIDix-63" value="" style="endArrow=classic;html=1;rounded=0;exitX=1;exitY=0.5;exitDx=0;exitDy=0;entryX=0;entryY=0.5;entryDx=0;entryDy=0;fillColor=#e51400;strokeColor=#B20000;strokeWidth=3;" edge="1" parent="1" source="LX3Rz9tpUeZRFyrgIDix-11" target="LX3Rz9tpUeZRFyrgIDix-12">
          <mxGeometry width="50" height="50" relative="1" as="geometry">
            <mxPoint x="440" y="340" as="sourcePoint" />
            <mxPoint x="490" y="290" as="targetPoint" />
          </mxGeometry>
        </mxCell>
        <mxCell id="LX3Rz9tpUeZRFyrgIDix-66" value="" style="endArrow=classic;html=1;rounded=0;entryX=1;entryY=0.5;entryDx=0;entryDy=0;" edge="1" parent="1" target="LX3Rz9tpUeZRFyrgIDix-21">
          <mxGeometry width="50" height="50" relative="1" as="geometry">
            <mxPoint x="580" y="240" as="sourcePoint" />
            <mxPoint x="600" y="190" as="targetPoint" />
            <Array as="points">
              <mxPoint x="610" y="240" />
              <mxPoint x="610" y="300" />
              <mxPoint x="610" y="385" />
            </Array>
          </mxGeometry>
        </mxCell>
        <mxCell id="LX3Rz9tpUeZRFyrgIDix-68" value="" style="endArrow=classic;html=1;rounded=0;entryX=0.5;entryY=0;entryDx=0;entryDy=0;" edge="1" parent="1" target="LX3Rz9tpUeZRFyrgIDix-19">
          <mxGeometry width="50" height="50" relative="1" as="geometry">
            <mxPoint x="610" y="320" as="sourcePoint" />
            <mxPoint x="520" y="320" as="targetPoint" />
            <Array as="points">
              <mxPoint x="500" y="320" />
              <mxPoint x="415" y="320" />
            </Array>
          </mxGeometry>
        </mxCell>
        <mxCell id="LX3Rz9tpUeZRFyrgIDix-86" value="" style="endArrow=classic;html=1;rounded=0;entryX=0.475;entryY=0.001;entryDx=0;entryDy=0;entryPerimeter=0;" edge="1" parent="1" target="LX3Rz9tpUeZRFyrgIDix-28">
          <mxGeometry width="50" height="50" relative="1" as="geometry">
            <mxPoint x="680" y="10" as="sourcePoint" />
            <mxPoint x="720" y="40" as="targetPoint" />
            <Array as="points">
              <mxPoint x="783" y="10" />
            </Array>
          </mxGeometry>
        </mxCell>
        <mxCell id="LX3Rz9tpUeZRFyrgIDix-87" value="" style="endArrow=classic;html=1;rounded=0;entryX=0.541;entryY=0.013;entryDx=0;entryDy=0;entryPerimeter=0;" edge="1" parent="1" target="LX3Rz9tpUeZRFyrgIDix-27">
          <mxGeometry width="50" height="50" relative="1" as="geometry">
            <mxPoint x="780" y="10" as="sourcePoint" />
            <mxPoint x="810" y="150" as="targetPoint" />
            <Array as="points">
              <mxPoint x="840" y="10" />
              <mxPoint x="860" y="10" />
              <mxPoint x="888" y="10" />
            </Array>
          </mxGeometry>
        </mxCell>
        <mxCell id="LX3Rz9tpUeZRFyrgIDix-88" value="" style="endArrow=classic;html=1;rounded=0;entryX=0.571;entryY=0;entryDx=0;entryDy=0;entryPerimeter=0;" edge="1" parent="1" target="LX3Rz9tpUeZRFyrgIDix-26">
          <mxGeometry width="50" height="50" relative="1" as="geometry">
            <mxPoint x="880" y="10" as="sourcePoint" />
            <mxPoint x="820" y="120" as="targetPoint" />
            <Array as="points">
              <mxPoint x="990" y="10" />
            </Array>
          </mxGeometry>
        </mxCell>
      </root>
    </mxGraphModel>
  </diagram>
</mxfile>
